<svg xmlns="http://www.w3.org/2000/svg" viewBox="0 0 1008 1000"><title>logo</title><g id="Calque_1" data-name="Calque 1"><text transform="translate(230.39 378.17)" style="font-size:350px;font-family:MyriadPro-Regular, Myriad Pro;letter-spacing:0.2em">WB<tspan x="40.08" y="420">SD</tspan></text><rect width="1008" height="1000"/></g><g id="Calque_2" data-name="Calque 2"><path d="M270.55,429.77l-61.5-242.64h33.22l28.9,122.78c7,30.34,13.48,60.39,17.8,83.88h.84c3.94-24.09,11.56-53,19.73-84.25l32.59-122.41h32.48l29.66,123c6.77,29.06,13.29,57.65,17,83.21h.78c4.84-26.58,11.58-53.63,19.13-83.82L473.3,187.13h32.18L436.63,429.77H403.9L373.36,303.52c-7.69-31.25-12.75-54.85-16-79.37h-.72c-4,24.34-9.68,47.93-18.68,79.32l-34.34,126.3Z" transform="translate(8 0)" style="fill:#fff"/><path d="M607.58,190.46c13.85-3,35.51-5.22,57.24-5.22,31.46,0,51.56,5.32,66.62,17.6,12.54,9.52,20.27,24,20.27,43,0,23.45-15.63,44.1-41,53.14v1c23.09,5.55,50.1,24.58,50.1,60.87,0,20.72-8.24,36.74-20.76,48.33-16.7,15.69-44,22.78-83.77,22.78a425.78,425.78,0,0,1-48.67-2.7Zm31.32,99.4h28.72c32.79,0,52.22-17.46,52.22-41,0-28.13-21.31-39.52-53-39.52-14.54,0-22.8,1.07-27.91,2.26Zm0,116.05c6.4,1.29,15.06,1.6,26.39,1.6,32.55,0,62.46-11.91,62.46-47.21,0-33-28.57-46.81-62.78-46.88H638.9Z" transform="translate(8 0)" style="fill:#fff"/><path d="M268.31,717.58c14,8.76,34.46,15.72,56,15.72,32,0,50.89-16.74,50.89-41.31,0-22.5-13.16-35.76-45.89-48-39.6-14.05-64.17-34.88-64.17-68.83,0-37.77,31.4-65.8,78.66-65.8,24.64,0,42.94,5.71,53.53,11.73l-8.75,25.69c-7.73-4.59-24-11.52-45.82-11.52-33.33,0-45.92,19.75-45.92,36.28,0,22.52,14.76,33.64,48.26,46.58C386.25,634.26,407,654,407,689.58c0,37.22-27.42,70-84.91,70-23.46,0-49-7.08-62-15.83Z" transform="translate(8 0)" style="fill:#fff"/><path d="M521.78,516.46a418.65,418.65,0,0,1,66.69-5.22c44.89,0,77.07,10.64,98.3,30.47,21.69,19.65,34.35,47.75,34.35,86.83,0,39.78-12.43,72-34.9,94.39-22.93,22.58-60.44,35-107.43,35-22.46,0-41.06-.87-57-2.7Zm31.48,214.65c8,1.29,19.55,1.47,31.51,1.47,67.17.17,103.34-37.25,103.34-102.85.38-57.31-32-93.48-98.12-93.48-16.22,0-28.37,1.5-36.73,3.2Z" transform="translate(8 0)" style="fill:#fff"/></g></svg>